<?xml version="1.0" encoding="UTF-8"?><svg id="Ebene_1" xmlns="http://www.w3.org/2000/svg" viewBox="0 0 667.6 324.51"><defs><style>.cls-1{font-size:31px;}.cls-1,.cls-2,.cls-3,.cls-4,.cls-5{font-family:PlusJakartaSans-Light, 'Plus Jakarta Sans';font-variation-settings:'wght' 300;font-weight:300;}.cls-6{letter-spacing:-.05em;}.cls-7{letter-spacing:0em;}.cls-8{font-size:37px;}.cls-8,.cls-9,.cls-10,.cls-11{font-family:PlusJakartaSans-Bold, 'Plus Jakarta Sans';font-variation-settings:'wght' 700;font-weight:700;}.cls-12{letter-spacing:0em;}.cls-13{letter-spacing:-.05em;}.cls-2{font-size:22px;}.cls-14{letter-spacing:-.05em;}.cls-3{font-size:17px;}.cls-9,.cls-5,.cls-15,.cls-16{font-size:20px;}.cls-17{letter-spacing:-.03em;}.cls-18,.cls-4,.cls-19{font-size:30px;}.cls-18,.cls-20,.cls-16{font-family:PlusJakartaSans-SemiBold, 'Plus Jakarta Sans';font-variation-settings:'wght' 600;font-weight:600;}.cls-21{letter-spacing:-.05em;}.cls-22{letter-spacing:-.03em;}.cls-10{font-size:24px;}.cls-23{letter-spacing:0em;}.cls-24{letter-spacing:-.03em;}.cls-25{letter-spacing:-.03em;}.cls-26{font-size:35px;}.cls-26,.cls-15,.cls-19,.cls-27{font-family:PlusJakartaSans-Medium, 'Plus Jakarta Sans';font-variation-settings:'wght' 500;font-weight:500;}.cls-28{letter-spacing:-.02em;}.cls-29{letter-spacing:-.05em;}.cls-30{letter-spacing:-.02em;}.cls-20,.cls-27{font-size:25px;}.cls-31{letter-spacing:0em;}.cls-11{font-size:23px;}</style></defs><text class="cls-15" transform="translate(539.79 139.76)"><tspan x="0" y="0">EIN</tspan><tspan class="cls-25" x="32.16" y="0">K</tspan><tspan x="44.8" y="0">OMMEN</tspan></text><text class="cls-5" transform="translate(98.82 204.84)"><tspan class="cls-28" x="0" y="0">V</tspan><tspan x="12.66" y="0">ORSORGE</tspan></text><text class="cls-15" transform="translate(366.37 139.62) rotate(-90)"><tspan class="cls-29" x="0" y="0">F</tspan><tspan class="cls-12" x="10.66" y="0">AHRPLAN</tspan></text><text class="cls-2" transform="translate(472.12 139.62) rotate(-90)"><tspan x="0" y="0">PRIORI</tspan><tspan class="cls-13" x="72.71" y="0">TÄ</tspan><tspan class="cls-23" x="96.05" y="0">TEN</tspan></text><text class="cls-8" transform="translate(248.15 177.05)"><tspan x="0" y="0">RUHES</tspan><tspan class="cls-6" x="124.1" y="0">T</tspan><tspan x="142.3" y="0">AND</tspan></text><text class="cls-26" transform="translate(508.02 241.2) rotate(-90)"><tspan x="0" y="0">SICHERHEIT</tspan></text><text class="cls-18" transform="translate(1.16 152.77)"><tspan x="0" y="0">RENTEN</tspan><tspan class="cls-30" x="115.92" y="0">L</tspan><tspan x="131.49" y="0">ÜCKE</tspan></text><text class="cls-4" transform="translate(77.29 117.25)"><tspan x="0" y="0">KLARHEIT</tspan></text><text class="cls-27" transform="translate(212.24 296.55) rotate(-90)"><tspan x="0" y="0">DEP</tspan><tspan class="cls-24" x="49.8" y="0">O</tspan><tspan x="71" y="0">T</tspan></text><text class="cls-16" transform="translate(517.91 113.94)"><tspan x="0" y="0">GE</tspan><tspan class="cls-7" x="28.24" y="0">S</tspan><tspan x="41.08" y="0">AMTBILD</tspan></text><text class="cls-5" transform="translate(373.69 138)"><tspan x="0" y="0">KAPI</tspan><tspan class="cls-21" x="43.92" y="0">T</tspan><tspan x="53.18" y="0">AL</tspan></text><text class="cls-10" transform="translate(373.11 111.53)"><tspan x="0" y="0">RENTE</tspan></text><text class="cls-15" transform="translate(110.24 179.09)"><tspan x="0" y="0">IMMOBILIE</tspan></text><text class="cls-11" transform="translate(387.99 240.33)"><tspan x="0" y="0">RISI</tspan><tspan class="cls-22" x="42.92" y="0">K</tspan><tspan x="57.84" y="0">O</tspan></text><text class="cls-9" transform="translate(540.79 163.77)"><tspan x="0" y="0">RUHE</tspan></text><text class="cls-19" transform="translate(147.25 85.26)"><tspan x="0" y="0">LIQUIDI</tspan><tspan class="cls-14" x="109.56" y="0">TÄ</tspan><tspan class="cls-31" x="142.38" y="0">T</tspan></text><text class="cls-3" transform="translate(250.73 110.23)"><tspan x="0" y="0">SZENARIEN</tspan></text><text class="cls-20" transform="translate(249.87 137.17)"><tspan x="0" y="0">PUFFER</tspan></text><text class="cls-19" transform="translate(243.06 315.84) rotate(-90)"><tspan x="0" y="0">ORIENTIERUNG</tspan></text><text class="cls-5" transform="translate(379.25 322.2) rotate(-90)"><tspan x="0" y="0">STRUKTUR</tspan></text><text class="cls-5" transform="translate(254.27 238.23)"><tspan x="0" y="0">VE</tspan><tspan class="cls-28" x="25.32" y="0">R</tspan><tspan x="37.68" y="0">TR</tspan><tspan class="cls-17" x="60.7" y="0">Ä</tspan><tspan x="73.06" y="0">GE</tspan></text><text class="cls-1" transform="translate(249.56 213.03)"><tspan x="0" y="0">ZEITHORIZONT</tspan></text><text class="cls-5" transform="translate(532.99 278.45) rotate(-90)"><tspan x="0" y="0">KAPI</tspan><tspan class="cls-21" x="43.92" y="0">T</tspan><tspan x="53.18" y="0">AL</tspan><tspan class="cls-28" x="76.78" y="0">A</tspan><tspan x="89.34" y="0">UFB</tspan><tspan class="cls-28" x="128.86" y="0">A</tspan><tspan x="141.42" y="0">U</tspan></text></svg>