<?xml version="1.0" encoding="UTF-8"?><svg id="Ebene_1" xmlns="http://www.w3.org/2000/svg" viewBox="0 0 715.53 375.03"><defs><style>.cls-1{letter-spacing:-.03em;}.cls-2,.cls-3,.cls-4,.cls-5{font-family:PlusJakartaSans-Regular, 'Plus Jakarta Sans';font-variation-settings:'wght' 400;}.cls-2,.cls-6{font-size:26px;}.cls-7{font-size:28px;}.cls-7,.cls-8,.cls-9,.cls-10,.cls-6,.cls-11,.cls-12,.cls-13{font-weight:700;}.cls-7,.cls-8,.cls-6,.cls-12,.cls-13{font-family:PlusJakartaSans-ExtraBold, 'Plus Jakarta Sans';font-variation-settings:'wght' 800;}.cls-8,.cls-3{font-size:34px;}.cls-9{font-size:30px;}.cls-9,.cls-10,.cls-11{font-family:PlusJakartaSans-Bold, 'Plus Jakarta Sans';font-variation-settings:'wght' 700;}.cls-14,.cls-15,.cls-16,.cls-17{font-family:PlusJakartaSans-Light, 'Plus Jakarta Sans';font-variation-settings:'wght' 300;font-weight:300;}.cls-14,.cls-18{font-size:22px;}.cls-10,.cls-13{font-size:33px;}.cls-19{letter-spacing:-.02em;}.cls-4{font-size:31px;}.cls-20{letter-spacing:-.02em;}.cls-21{letter-spacing:-.02em;}.cls-22,.cls-11,.cls-16{font-size:19px;}.cls-22,.cls-23,.cls-18,.cls-24{font-family:PlusJakartaSans-SemiBold, 'Plus Jakarta Sans';font-variation-settings:'wght' 600;font-weight:600;}.cls-25{letter-spacing:-.03em;}.cls-26{letter-spacing:0em;}.cls-27{letter-spacing:-.03em;}.cls-15,.cls-24{font-size:25px;}.cls-28{letter-spacing:-.02em;}.cls-29{letter-spacing:-.06em;}.cls-11{letter-spacing:.02em;}.cls-30{letter-spacing:-.02em;}.cls-23{font-size:18px;}.cls-12,.cls-17{font-size:23px;}.cls-31{letter-spacing:-.03em;}.cls-32{letter-spacing:-.05em;}.cls-33{letter-spacing:0em;}.cls-5{font-size:40px;}.cls-34{letter-spacing:-.02em;}.cls-13{letter-spacing:0em;}.cls-35{letter-spacing:-.01em;}.cls-36{letter-spacing:-.04em;}.cls-37{letter-spacing:-.05em;}</style></defs><text class="cls-5" transform="translate(178.19 227.71)"><tspan class="cls-26" x="0" y="0">SELBS</tspan><tspan class="cls-29" x="123.52" y="0">T</tspan><tspan class="cls-33" x="141.68" y="0">ÄNDIGKEIT</tspan></text><text class="cls-17" transform="translate(201.82 95.85)"><tspan x="0" y="0">EIN</tspan><tspan class="cls-27" x="36.85" y="0">K</tspan><tspan x="51.15" y="0">OMMEN</tspan></text><text class="cls-6" transform="translate(362.32 298.27) scale(.9 1)"><tspan x="0" y="0">RECHNUNGEN</tspan></text><text class="cls-3" transform="translate(0 265.32)"><tspan x="0" y="0">SICHERHEIT</tspan></text><text class="cls-2" transform="translate(239.96 298.03)"><tspan x="0" y="0">STEUERN</tspan></text><text class="cls-4" transform="translate(382.9 265.5)"><tspan x="0" y="0">KLARHEIT</tspan></text><text class="cls-13" transform="translate(230.1 375.03) rotate(-90)"><tspan x="0" y="0">KUNDEN</tspan></text><text class="cls-10" transform="translate(240.19 266.1) scale(.9 1)"><tspan class="cls-28" x="0" y="0">A</tspan><tspan x="22.84" y="0">US</tspan><tspan class="cls-37" x="67.88" y="0">F</tspan><tspan x="85.57" y="0">ALL</tspan></text><text class="cls-12" transform="translate(30.59 292.89) scale(.9 1)"><tspan x="0" y="0">RÜC</tspan><tspan class="cls-35" x="49.75" y="0">K</tspan><tspan x="65.32" y="0">STEL</tspan><tspan class="cls-30" x="119.02" y="0">L</tspan><tspan x="131.15" y="0">UNG</tspan></text><text class="cls-23" transform="translate(241.62 322.94)"><tspan x="0" y="0">ÜBERBLICK</tspan></text><text class="cls-18" transform="translate(224.96 151.85)"><tspan x="0" y="0">VE</tspan><tspan class="cls-19" x="28.2" y="0">R</tspan><tspan x="42.15" y="0">TR</tspan><tspan class="cls-25" x="68.24" y="0">Ä</tspan><tspan x="82.81" y="0">GE</tspan></text><text class="cls-18" transform="translate(90.22 152.09)"><tspan class="cls-34" x="0" y="0">V</tspan><tspan x="14.56" y="0">ORSORGE</tspan></text><text class="cls-15" transform="translate(121.59 184.17)"><tspan x="0" y="0">SCH</tspan><tspan class="cls-36" x="54.1" y="0">W</tspan><tspan x="77.87" y="0">ANKUNGEN</tspan></text><text class="cls-22" transform="translate(581.95 339.32) rotate(-90)"><tspan x="0" y="0">RÜCKL</tspan><tspan class="cls-1" x="63.69" y="0">A</tspan><tspan x="76.26" y="0">GEN</tspan></text><text class="cls-16" transform="translate(567.53 212.68)"><tspan x="0" y="0">PROJEKTE</tspan></text><text class="cls-9" transform="translate(560.24 329.49) rotate(-90) scale(.9 1)"><tspan x="0" y="0">VERANT</tspan><tspan class="cls-21" x="118.44" y="0">W</tspan><tspan x="148.44" y="0">O</tspan><tspan class="cls-20" x="174.78" y="0">R</tspan><tspan x="194.01" y="0">TUNG</tspan></text><text class="cls-11" transform="translate(380.17 186.63)"><tspan x="0" y="0">ABSICHERUNG</tspan></text><text class="cls-17" transform="translate(408.14 160.64)"><tspan x="0" y="0">LIQUIDI</tspan><tspan class="cls-32" x="82.96" y="0">TÄ</tspan><tspan x="107.36" y="0">T</tspan></text><text class="cls-14" transform="translate(409.14 99.4)"><tspan x="0" y="0">NETZWERK</tspan></text><text class="cls-6" transform="translate(409.14 131.2) scale(.9 1)"><tspan x="0" y="0">PLANUNG</tspan></text><text class="cls-24" transform="translate(402.61 161.57) rotate(-90)"><tspan x="0" y="0">FIX</tspan><tspan class="cls-31" x="37.4" y="0">K</tspan><tspan x="53.42" y="0">OSTEN</tspan></text><text class="cls-8" transform="translate(373.18 190.07) rotate(-90)"><tspan x="0" y="0">STRUKTUR</tspan></text><text class="cls-7" transform="translate(155.2 124.59) scale(.9 1)"><tspan x="0" y="0">ARBEITSKRAFT</tspan></text></svg>